<?xml version="1.0" standalone="no"?><!DOCTYPE svg PUBLIC "-//W3C//DTD SVG 1.1//EN" "http://www.w3.org/Graphics/SVG/1.1/DTD/svg11.dtd"><svg t="1734333197151" class="icon" viewBox="0 0 1024 1024" version="1.1" xmlns="http://www.w3.org/2000/svg" p-id="8365" xmlns:xlink="http://www.w3.org/1999/xlink" width="128" height="128"><path d="M946.934187 0.909361H225.231634c-40.531501 0-73.538293 32.886876-73.538293 73.538293v143.08939H75.986572c-40.541494 0-73.538293 32.886876-73.538293 73.538294v657.297837c0 40.531501 32.886876 73.538293 73.538293 73.538293h653.870247c40.531501 0 73.538293-32.886876 73.538294-73.538293V873.805605h143.429151c40.531501 0 73.538293-32.886876 73.538294-73.538293V74.447654c0.109923-40.651417-32.776954-73.538293-73.428371-73.538293zM730.426419 948.253259v0.119916c0 0.109923-0.229838 0.229838-0.229838 0.229839H75.986572c-0.109923 0-0.229838-0.229838-0.229838-0.229839V290.845499c0-0.119916 0.229838-0.229838 0.229838-0.229838h0.119916l75.706768 0.109923s-1.708799 542.758373-1.708798 546.525724c0 20.205793 16.328519 36.534312 36.534312 36.534311h543.787649v74.46764zM224.891873 74.217816c0-0.109923 0.229838-0.229838 0.229838-0.229839h721.932392c0.109923 0 0.229838 0.229838 0.229838 0.229839v726.149426c0 0.119916-0.229838 0.229838-0.229838 0.229838H224.891873V74.217816z m0 0" fill="#7c2b53" p-id="8366"></path></svg>